<?xml version="1.0" encoding="utf-8"?>
<!DOCTYPE svg PUBLIC "-//W3C//DTD SVG 1.0//EN" "http://www.w3.org/TR/2001/REC-SVG-20010904/DTD/svg10.dtd">
<svg version="1.0" xmlns="http://www.w3.org/2000/svg" width="51px" height="51px" viewBox="0 0 51 51" preserveAspectRatio="xMidYMid meet">
 <g fill="transparent">
  <path d="M0 25.5 l0 -25.5 25.5 0 25.5 0 0 25.5 0 25.5 -25.5 0 -25.5 0 0 -25.5z m11 8.1 c0 -2.8 4.9 -5.6 9.8 -5.6 4 0 5.3 0.5 8.2 3.4 4.3 4.1 7.2 5.1 10.2 3.5 3.4 -1.8 4.7 -4 4.8 -7.6 0 -2.7 -1.1 -4.3 -6 -9 -4.5 -4.4 -6 -6.5 -6 -8.6 0 -2.5 -0.2 -2.7 -2 -1.7 -2.4 1.3 -2.6 5.2 -0.5 7.4 0.8 0.8 1.5 3 1.5 5 l0 3.5 -7.4 -0.2 c-6.2 -0.2 -7.9 0.2 -10.2 1.9 -4 2.9 -6.8 7 -6.1 8.8 0.7 1.8 3.7 1.1 3.7 -0.8z"/>
  <path d="M32 26.5 c0 -3.3 0.2 -3.5 3.5 -3.5 3.3 0 3.5 0.2 3.5 3.5 0 3.3 -0.2 3.5 -3.5 3.5 -3.3 0 -3.5 -0.2 -3.5 -3.5z"/>
 </g>
 <g fill="#f7f7f7">
  <path d="M10 36.5 c0 -1.8 0.5 -2.5 2 -2.5 1.4 0 2 -0.7 2 -2.4 0 -2.2 0.5 -2.5 5.9 -3.1 7.2 -0.8 10.1 1 10.1 6.3 l0 3.4 -3.7 -3.6 c-2.1 -2 -4.5 -3.6 -5.5 -3.6 -2.1 0 -6.8 3.8 -6.8 5.6 0 1 -2.1 2.4 -3.6 2.4 -0.2 0 -0.4 -1.1 -0.4 -2.5z"/>
  <path d="M3.7 35.8 c-0.8 -3.1 0.2 -6.8 1.9 -6.8 1 0 1.4 1.3 1.4 4.5 0 4.9 -2.3 6.4 -3.3 2.3z"/>
  <path d="M41 35.5 c0 -1.6 0.6 -2.5 1.6 -2.5 1.4 0 1.6 -0.9 1.2 -5 -0.4 -3.9 -1.2 -5.5 -3.6 -7.9 -1.8 -1.6 -3.2 -3.4 -3.2 -3.9 0 -0.6 -1 -1.2 -2.2 -1.4 -1.9 -0.2 -2.4 -1 -2.6 -4 -0.2 -2.9 0 -3.8 1.2 -3.8 0.9 0 1.6 0.6 1.6 1.3 0 0.6 2.7 3.8 6 7 3.3 3.1 6 6.5 6 7.5 0 1 0.6 2.4 1.2 3 1 1 1 1.7 0 3.2 -0.6 1.1 -1.2 2.6 -1.2 3.3 0 1.6 -3.7 5.7 -5 5.7 -0.6 0 -1 -1.1 -1 -2.5z"/>
  <path d="M32 29 c0 -1.1 -0.7 -2 -1.5 -2 -0.8 0 -1.5 -0.7 -1.5 -1.5 0 -1 -1 -1.5 -3 -1.5 -2.4 0 -3 -0.4 -3 -2.1 0 -1.7 0.5 -2 2.5 -1.7 1.4 0.3 2.5 0.1 2.5 -0.3 0 -0.5 -0.4 -0.9 -0.9 -0.9 -0.5 0 -1.4 -1.3 -2 -3 -0.9 -2.8 -0.8 -3 1.4 -3 1.5 0 2.6 0.7 3 2 0.3 1.1 1.1 2 1.6 2 0.5 0 0.9 0.7 0.9 1.5 0 0.8 0.9 1.5 2 1.5 1.3 0 2 0.7 2 2 0 1.3 0.7 2 2 2 1.6 0 2 0.7 2 3.5 0 3.4 -0.1 3.5 -4 3.5 -3.3 0 -4 -0.3 -4 -2z"/>
  <path d="M9.3 23.5 c3.6 -3.2 4.7 -3.1 4.7 0 0 2.2 -0.4 2.5 -3.7 2.5 l-3.8 -0.1 2.8 -2.4z"/>
  <path d="M24.6 8.3 c0.7 -1.9 3.2 -4.3 4.7 -4.3 0.4 0 0.7 1.2 0.5 2.8 -0.2 2.1 -0.9 2.8 -3 3 -2.3 0.3 -2.7 0 -2.2 -1.5z"/>
 </g>
 <g fill="#efefef">
  <path d="M4.7 38.3 c-1.9 -1.9 -0.5 -3.3 3.3 -3.3 3.6 0 4 -0.2 4 -2.5 0 -2.2 0.4 -2.5 3.5 -2.5 l3.6 0 -3.8 4.5 c-2.9 3.6 -4.4 4.5 -6.8 4.5 -1.8 0 -3.5 -0.3 -3.8 -0.7z"/>
  <path d="M30.4 38 c-1.2 -0.4 -2.4 -1.5 -2.7 -2.4 -0.5 -1.2 0 -1.6 2.3 -1.6 2.5 0 3 0.4 3 2.5 0 1.4 -0.1 2.5 -0.2 2.4 -0.2 0 -1.2 -0.4 -2.4 -0.9z"/>
  <path d="M37 37 c0 -1.6 0.7 -2 3.5 -2 3.9 0 4.6 1.4 1.6 3 -3.1 1.6 -5.1 1.2 -5.1 -1z"/>
  <path d="M44 27.5 c0 -4.9 2.3 -6.4 3.3 -2.3 0.8 3.1 -0.2 6.8 -1.9 6.8 -1 0 -1.4 -1.3 -1.4 -4.5z"/>
  <path d="M4 29.8 c0 -1.8 7.9 -8.8 10 -8.8 2.8 0 2.6 3.6 -0.2 5.1 -1.3 0.7 -2.9 2 -3.6 3.1 -1.4 2 -6.2 2.5 -6.2 0.6z"/>
  <path d="M31 28.2 c0 -0.4 -1.3 -1.3 -3 -2 -1.8 -0.8 -3 -2.1 -3 -3.2 0 -1 -0.6 -2.1 -1.2 -2.4 -0.7 -0.3 0.2 -0.3 2 0 l3.3 0.6 -2.6 -3.8 c-3 -4.5 -3.2 -7.3 -0.4 -10.8 2.5 -3.1 5.9 -3.5 5.9 -0.6 0 1.3 -0.7 2 -2 2 -1.6 0 -2 0.7 -2 3 0 1.7 0.5 3 1 3 0.6 0 1 0.9 1 2 0 1.1 0.7 2 1.5 2 0.8 0 2 0.9 2.7 2 0.7 1.1 1.8 2 2.5 2 0.8 0 1.3 1.4 1.3 3.5 0 3.3 -0.2 3.5 -3.5 3.5 -1.9 0 -3.5 -0.3 -3.5 -0.8z"/>
  <path d="M34 12.6 l0 -3.4 3.5 3.1 c1.9 1.7 3.5 3.2 3.5 3.4 0 0.2 -1.6 0.3 -3.5 0.3 -3.3 0 -3.5 -0.2 -3.5 -3.4z"/>
 </g>
 <g fill="#e6e6e6">
  <path d="M5.3 38.3 c-2.1 -0.8 -1.5 -4.3 0.7 -4.3 1.5 0 2 0.7 2 2.5 0 2.5 -0.4 2.8 -2.7 1.8z"/>
  <path d="M10 36 c0 -2 0.5 -3 1.5 -3 0.8 0 1.5 -0.9 1.5 -2 0 -1.6 0.7 -2 3.5 -2 4.1 0 4.5 1.1 1 3 -1.3 0.7 -2.7 2.1 -3.1 3.2 -0.3 1 -1.4 2.3 -2.5 2.8 -1.7 1 -1.9 0.7 -1.9 -2z"/>
  <path d="M26.7 34.5 c-1.9 -1.9 -4 -3.5 -4.6 -3.5 -0.6 0 -1.1 -0.4 -1.1 -1 0 -0.5 1.6 -1 3.5 -1 2.8 0 3.5 0.4 3.5 2 0 1.3 0.7 2 2 2 1.5 0 2 0.7 2 2.5 0 3.4 -1.1 3.2 -5.3 -1z"/>
  <path d="M40 35.5 c0 -1.5 0.6 -2.5 1.4 -2.5 1.4 0 2.6 -2.9 2.6 -6.7 0 -2.7 2.9 -3.2 3.1 -0.5 0.3 4.7 -0.5 7.9 -2.4 10 -2.7 2.9 -4.7 2.8 -4.7 -0.3z"/>
  <path d="M4 31.3 c0 -1.9 5.5 -8.3 7.1 -8.3 0.5 0 0.9 1.1 0.9 2.5 0 1.8 -0.5 2.5 -2 2.5 -1.5 0 -2 0.7 -2 2.5 0 1.8 -0.5 2.5 -2 2.5 -1.2 0 -2 -0.7 -2 -1.7z"/>
  <path d="M29 26 c-0.8 -1.2 -2.6 -2 -4.2 -2 -2.1 0 -2.8 -0.5 -2.8 -2 0 -2.6 2.5 -2.6 6.8 0 4.5 2.8 4.8 2.5 1 -0.9 -1.9 -1.7 -2.9 -3.3 -2.4 -3.8 0.5 -0.4 1.1 -0.2 1.3 0.5 0.3 0.6 1.8 1.2 3.4 1.2 1.6 0 2.9 0.5 2.9 1 0 0.6 0.7 1 1.5 1 1.1 0 1.5 1.1 1.5 3.7 0 3.6 0 3.6 -2 1.8 -1.8 -1.7 -2 -1.7 -1.4 -0.2 0.9 2.5 -3.8 2.2 -5.6 -0.3z"/>
  <path d="M36.1 17.6 c-0.7 -0.8 -1.1 -2.7 -0.9 -4.2 l0.3 -2.6 4.5 4 4.5 4.1 -3.6 0.1 c-2 0 -4.2 -0.6 -4.8 -1.4z"/>
  <path d="M24.6 13.6 c-0.8 -3.2 0.8 -7.2 3.4 -8.6 1.8 -1 2 -0.8 2 2 0 1.6 -0.4 3 -1 3 -0.5 0 -1 1.4 -1 3 0 3.7 -2.5 4.1 -3.4 0.6z"/>
 </g>
 <g fill="#dedede">
  <path d="M9 36.5 c0 -2.1 0.5 -2.5 3.1 -2.5 2.9 0 3 0.2 1.8 1.8 -3.1 3.9 -4.9 4.2 -4.9 0.7z"/>
  <path d="M30.8 37.9 c-2.9 -1.6 -2.1 -2.9 1.7 -2.9 2.8 0 3.5 0.4 3.5 2 0 2.2 -2.4 2.6 -5.2 0.9z"/>
  <path d="M41 35 c0 -2.7 0.3 -3 3 -3 3.6 0 3.7 0.2 0.6 3.4 -3 3.3 -3.6 3.3 -3.6 -0.4z"/>
  <path d="M26 23.5 c0 -2.9 0.8 -3.1 3.6 -1 3.4 2.6 4 1.6 0.7 -1.1 -4.2 -3.2 -4.2 -4.6 -0.1 -4.2 3.5 0.3 4.4 2.1 3.4 6.4 -0.5 2 -1.3 2.4 -4.1 2.4 -3.1 0 -3.5 -0.3 -3.5 -2.5z"/>
  <path d="M43 24.6 c0 -0.8 -0.7 -1.6 -1.5 -2 -1.6 -0.6 -2.1 -6.6 -0.6 -6.6 1.5 0 6.1 6 6.1 8.1 0 1.2 -0.7 1.9 -2 1.9 -1.1 0 -2 -0.6 -2 -1.4z"/>
  <path d="M25 9.4 c0 -1.5 2.3 -4.4 3.4 -4.4 0.3 0 0.6 1.4 0.6 3 0 2.3 -0.4 3 -2 3 -1.2 0 -2 -0.7 -2 -1.6z"/>
 </g>
 <g fill="#d6d6d6">
  <path d="M5.2 37.8 c-1.9 -1.9 -1.4 -2.8 1.8 -2.8 2.3 0 3 0.4 3 2 0 2.3 -2.9 2.7 -4.8 0.8z"/>
  <path d="M31.5 38 c-1.1 -0.4 -3.6 -2.4 -5.4 -4.4 l-3.5 -3.6 3.7 0 c3 0 3.7 0.4 3.7 2 0 1.3 0.7 2 2 2 1.5 0 2 0.7 2 2.5 0 1.4 -0.1 2.5 -0.2 2.4 -0.2 0 -1.2 -0.4 -2.3 -0.9z"/>
  <path d="M39 36.5 c0 -2.2 0.4 -2.5 3.5 -2.5 3.4 0 3.4 0.1 1.7 1.8 -3.2 3.2 -5.2 3.5 -5.2 0.7z"/>
  <path d="M14 31.5 c0 -3.3 0.2 -3.5 3.5 -3.5 2.4 0 3.5 0.5 3.5 1.5 0 0.8 -0.7 1.5 -1.5 1.5 -0.8 0 -2.4 0.9 -3.5 2 l-2 2 0 -3.5z"/>
  <path d="M31 27.1 c0 -2.9 1.4 -4.1 5.1 -4.1 1.5 0 1.9 0.7 1.9 3.5 0 3.3 -0.2 3.5 -3.5 3.5 -3.2 0 -3.5 -0.3 -3.5 -2.9z m4.8 -1.1 c-0.7 -1.1 -1.6 -2 -2 -2 -0.5 0 -0.3 0.9 0.4 2 0.7 1.1 1.6 2 2 2 0.5 0 0.3 -0.9 -0.4 -2z"/>
  <path d="M13 22.6 c0 -1.3 2.8 -2.6 5.8 -2.6 0.6 0 1.2 0.9 1.2 2 0 1.6 -0.7 2 -3.5 2 -2.3 0 -3.5 -0.5 -3.5 -1.4z"/>
  <path d="M27.6 18.5 c-2.5 -2.6 -3.4 -5.7 -2.8 -8.8 0.5 -2.4 3.2 -2.1 3.2 0.4 0 1.1 0.7 2.7 1.5 3.5 1.4 1.4 2.2 7.4 1 7.4 -0.3 0 -1.6 -1.1 -2.9 -2.5z"/>
  <path d="M31 6.5 c0 -1.8 0.5 -2.5 2 -2.5 1.5 0 2 0.7 2 2.5 0 1.8 -0.5 2.5 -2 2.5 -1.5 0 -2 -0.7 -2 -2.5z"/>
 </g>
 <g fill="#cecece">
  <path d="M11 34.6 c0 -3.3 0.2 -3.6 3.1 -3.6 l3 0 -2.1 3 c-3.1 4.4 -4 4.5 -4 0.6z"/>
  <path d="M5 29.1 c0 -1.6 8.2 -8.1 10.2 -8.1 3.1 0 2.2 4 -1.2 5.3 -1.6 0.6 -3 1.7 -3 2.4 0 0.8 -1.2 1.3 -3 1.3 -1.6 0 -3 -0.4 -3 -0.9z"/>
  <path d="M42 20.5 c0 -3.4 0.1 -3.4 1.8 -1.7 3.2 3.2 3.5 5.2 0.7 5.2 -2.2 0 -2.5 -0.4 -2.5 -3.5z"/>
  <path d="M31.7 12.1 c-0.5 -2.4 -1.2 -3 -3.7 -3.3 l-3.1 -0.3 2.1 -2.2 c3.7 -4 8 -2.6 8 2.5 0 0.8 1 2.6 2.2 3.9 l2.1 2.3 -3.5 0 c-3.1 0 -3.6 -0.4 -4.1 -2.9z"/>
 </g>
 <g fill="#c5c5c5">
  <path d="M36 37 c0 -1.6 0.7 -2 3.5 -2 3.9 0 4.6 1.4 1.6 3 -3.1 1.6 -5.1 1.2 -5.1 -1z"/>
  <path d="M27.3 34.5 c-2 -1.9 -4.1 -3.5 -4.5 -3.5 -0.4 0 -0.8 -0.4 -0.8 -1 0 -0.5 1.6 -1 3.5 -1 2.8 0 3.5 0.4 3.5 2 0 1.3 0.7 2 2 2 1.5 0 2 0.7 2 2.5 0 3.4 -1.3 3.1 -5.7 -1z"/>
  <path d="M4 32.4 c0 -2.1 1.8 -5.4 3 -5.4 0.6 0 1 1.6 1 3.5 0 2.8 -0.4 3.5 -2 3.5 -1.1 0 -2 -0.7 -2 -1.6z"/>
  <path d="M30.8 28.3 c-1 -0.2 -1.8 -0.9 -1.8 -1.4 0 -0.5 -0.6 -0.9 -1.3 -0.9 -0.7 0 -2.5 -0.6 -4 -1.2 -3 -1.5 -3.7 -4.8 -0.9 -4.8 2.5 0 9.4 3.8 11.4 6.3 0.9 1.2 1.9 1.9 2.2 1.6 0.6 -0.6 -1 -2.5 -6 -7.1 -5.9 -5.4 -7.2 -8.8 -3.4 -8.8 1.3 0 2 0.7 2 2 0 1.1 0.7 2 1.5 2 0.9 0 1.5 0.9 1.5 2.4 0 1.9 0.7 2.5 3.5 3 3.2 0.6 3.5 1 3.5 4.1 0 3.3 -0.2 3.5 -3.2 3.4 -1.8 -0.1 -4.1 -0.3 -5 -0.6z"/>
 </g>
 <g fill="#bdbdbd">
  <path d="M10 35.6 c0 -3.3 0.2 -3.6 3.1 -3.6 l3 0 -2.1 3 c-3.1 4.4 -4 4.5 -4 0.6z"/>
  <path d="M27 34 l-3.1 -3 3.6 0 c3.2 0 3.5 0.2 3.5 3 0 1.7 -0.2 3 -0.5 3 -0.2 0 -1.8 -1.3 -3.5 -3z"/>
  <path d="M42 34.7 c0 -3.8 1 -5.7 3.1 -5.7 3.2 0 2.4 3.9 -1.3 6.9 -1.6 1.2 -1.8 1.1 -1.8 -1.2z"/>
  <path d="M5 29.8 c0 -0.7 1.2 -2.4 2.5 -3.7 l2.5 -2.3 0 3.6 c0 3.2 -0.3 3.6 -2.5 3.6 -1.4 0 -2.5 -0.6 -2.5 -1.2z"/>
  <path d="M30 25.9 c0 -3.4 0.5 -3.2 5.2 1.4 1.7 1.6 1.6 1.7 -1.7 1.7 -3.3 0 -3.5 -0.2 -3.5 -3.1z"/>
  <path d="M33 23.4 l-3.5 -3.4 3.8 0 c3.6 0 3.7 0.1 3.7 3.5 0 1.9 -0.1 3.5 -0.2 3.4 -0.2 -0.1 -1.9 -1.6 -3.8 -3.5z"/>
  <path d="M14 22.6 c0 -1.3 2.8 -2.6 5.8 -2.6 0.6 0 1.2 0.9 1.2 2 0 1.6 -0.7 2 -3.5 2 -2.3 0 -3.5 -0.5 -3.5 -1.4z"/>
  <path d="M33 12.5 c0 -1.9 0.5 -3.5 1 -3.5 0.6 0 1 0.5 1 1 0 0.6 1.2 2.2 2.8 3.5 l2.7 2.4 -3.7 0.1 c-3.7 0 -3.8 -0.1 -3.8 -3.5z"/>
  <path d="M27.5 6 c1 -1.1 2.6 -2 3.7 -2 1.1 0 1.8 0.7 1.8 2 0 1.6 -0.7 2 -3.7 2 -3.5 0 -3.6 0 -1.8 -2z"/>
 </g>
 <g fill="#b5b5b5">
  <path d="M5.8 37.9 c-2.5 -1.4 -2.3 -4.9 0.2 -4.9 1.6 0 2 0.7 2 3 0 1.7 -0.1 3 -0.2 3 -0.2 0 -1.1 -0.5 -2 -1.1z"/>
  <path d="M31.8 37.9 c-2.9 -1.6 -2.1 -2.9 1.7 -2.9 2.8 0 3.5 0.4 3.5 2 0 2.2 -2.4 2.6 -5.2 0.9z"/>
  <path d="M12 32.6 c0 -3.4 0.1 -3.6 3.5 -3.6 4.3 0 4.3 0.7 -0.1 4.3 l-3.4 2.9 0 -3.6z"/>
  <path d="M11 24.4 c0 -1.2 3.4 -3.3 5.3 -3.4 1 0 1.7 0.7 1.7 2 0 1.6 -0.7 2 -3.5 2 -1.9 0 -3.5 -0.3 -3.5 -0.6z"/>
  <path d="M38.7 20.3 c-0.4 -0.3 -0.7 -1.9 -0.7 -3.5 0 -2.8 0.1 -2.8 2.1 -1.4 1.1 0.8 2.7 2.4 3.5 3.5 1.4 2 1.4 2.1 -1.4 2.1 -1.6 0 -3.2 -0.3 -3.5 -0.7z"/>
  <path d="M31 8.5 c0 -4 2.4 -4.9 3.4 -1.2 1 3.7 0.7 4.7 -1.4 4.7 -1.6 0 -2 -0.7 -2 -3.5z"/>
 </g>
 <g fill="#adadad">
  <path d="M7 37 c0 -1.6 0.7 -2 3 -2 3.2 0 3.7 0.9 1.8 2.8 -1.9 1.9 -4.8 1.5 -4.8 -0.8z"/>
  <path d="M27.7 34.5 c-2 -1.9 -4.4 -3.5 -5.2 -3.5 -0.8 0 -1.5 -0.7 -1.5 -1.5 0 -1 1.1 -1.5 3.5 -1.5 2.8 0 3.5 0.4 3.5 2 0 1.3 0.7 2 2 2 1.6 0 2 0.7 2 3 0 1.7 -0.1 3 -0.3 3 -0.2 0 -2 -1.6 -4 -3.5z"/>
  <path d="M4.7 30.3 c0.4 -0.9 1.5 -2.5 2.5 -3.5 1.7 -1.7 1.8 -1.7 1.8 1.7 0 3.1 -0.3 3.5 -2.5 3.5 -1.9 0 -2.3 -0.4 -1.8 -1.7z"/>
  <path d="M20 22 c0 -2.5 2.3 -2.5 7.5 0 l4 1.9 -5.7 0.1 c-5.1 0 -5.8 -0.2 -5.8 -2z"/>
  <path d="M29.5 20 l-2.9 -3 3.7 0 c3.4 0 3.7 0.2 3.7 3 0 1.7 -0.4 3 -0.8 3 -0.5 0 -2.1 -1.3 -3.7 -3z"/>
  <path d="M35 15 c0 -2.6 0.3 -2.9 1.8 -2.1 0.9 0.5 2.6 1.9 3.6 3 1.9 2.1 1.9 2.1 -1.7 2.1 -3.4 0 -3.7 -0.2 -3.7 -3z"/>
  <path d="M25 9.7 c0 -1.4 3.1 -4.7 4.3 -4.7 0.4 0 0.7 1.4 0.7 3 0 2.5 -0.4 3 -2.5 3 -1.4 0 -2.5 -0.6 -2.5 -1.3z"/>
 </g>
 <g fill="#a5a5a5">
  <path d="M9 36 c0 -2.7 0.3 -3 3 -3 3 0 3 0 1.5 2.4 -2.5 3.8 -4.5 4.1 -4.5 0.6z"/>
  <path d="M38 36.4 c0 -2.1 0.5 -2.4 3.7 -2.4 3.5 0 3.6 0.1 1.9 1.9 -1 1 -2.6 2.1 -3.7 2.4 -1.5 0.4 -1.9 0 -1.9 -1.9z"/>
  <path d="M33.7 30.3 c-0.4 -0.3 -0.7 -1.5 -0.7 -2.7 0 -1.5 0.3 -1.7 1.2 -0.8 2.2 2.2 3.1 1.3 1.3 -1.4 l-1.6 -2.5 3.3 0.3 c3 0.3 3.3 0.6 3.6 4.1 0.3 3.6 0.2 3.7 -3.1 3.7 -1.8 0 -3.7 -0.3 -4 -0.7z"/>
  <path d="M26.2 16 c-1.8 -2.9 -1.5 -6.8 0.8 -9.2 l2 -2.2 0 6.7 c0 7 -0.7 8.1 -2.8 4.7z"/>
 </g>
 <g fill="#9c9c9c">
  <path d="M5.6 37.4 c-2.2 -2.2 -2 -3.4 0.7 -3.4 3.1 0 5.1 1.5 4.4 3.4 -0.8 2 -3.1 2.1 -5.1 0z"/>
  <path d="M35 37 c0 -1.6 0.7 -2 3.5 -2 3.9 0 4.6 1.4 1.6 3 -3.1 1.6 -5.1 1.2 -5.1 -1z"/>
  <path d="M27.3 33.9 c-2.4 -2.2 -4.3 -4.2 -4.3 -4.4 0 -0.3 1.6 -0.5 3.5 -0.5 2.8 0 3.5 0.4 3.5 2 0 1.3 0.7 2 2 2 1.5 0 2 0.7 2 2.5 0 3.5 -1.8 3.1 -6.7 -1.6z"/>
  <path d="M13 31.7 c0 -3.6 0.1 -3.7 3.5 -3.7 2.4 0 3.5 0.5 3.5 1.5 0 0.8 -0.7 1.5 -1.5 1.5 -0.8 0 -2.3 1 -3.5 2.2 l-2 2.2 0 -3.7z"/>
  <path d="M27 26 c0 -0.5 -0.9 -1 -2 -1 -1.3 0 -2 -0.7 -2 -2 0 -1.1 0.6 -2 1.3 -2 2 0 7.3 2.8 8.7 4.5 1.1 1.3 0.7 1.5 -2.4 1.5 -2 0 -3.6 -0.4 -3.6 -1z"/>
  <path d="M42 22 c0 -2.6 -0.4 -3 -2.6 -3 -2.9 0 -5.4 -2.1 -5.4 -4.4 0 -0.9 -0.7 -1.6 -1.5 -1.6 -1 0 -1.5 -1.1 -1.5 -3.5 0 -4.2 2.4 -4.8 3.4 -0.9 0.4 1.4 3.4 5.1 6.6 8.3 6.5 6.2 7.3 8.1 3.5 8.1 -2.1 0 -2.5 -0.5 -2.5 -3z"/>
  <path d="M15 22.6 c0 -1.3 2.8 -2.6 5.8 -2.6 0.6 0 1.2 0.9 1.2 2 0 1.6 -0.7 2 -3.5 2 -2.3 0 -3.5 -0.5 -3.5 -1.4z"/>
  <path d="M31.7 22.3 c-1.2 -1.1 -0.8 -2.3 0.8 -2.3 0.8 0 1.5 0.7 1.5 1.5 0 1.6 -1.2 2 -2.3 0.8z"/>
 </g>
 <g fill="#949494">
  <path d="M7.3 38.3 c-2.3 -0.9 -1.4 -3.3 1.2 -3.3 2 0 2.5 -0.5 2.5 -2.5 0 -2.2 0.4 -2.5 3.5 -2.5 3.4 0 3.4 0.1 1.8 1.8 -1 1 -2.8 3.1 -4 4.5 -2.3 2.7 -2.8 2.9 -5 2z"/>
  <path d="M32.8 38.3 c-3.3 -0.8 -2 -3.3 1.7 -3.3 2.8 0 3.5 0.4 3.5 2 0 2 -1.4 2.3 -5.2 1.3z"/>
  <path d="M39 35.5 c0 -1.6 0.6 -2.5 1.5 -2.5 0.8 0 1.5 -0.7 1.5 -1.5 0 -0.9 0.9 -1.5 2.5 -1.5 3.3 0 3.2 1.5 -0.4 5.1 -3.6 3.6 -5.1 3.7 -5.1 0.4z"/>
  <path d="M28.7 25.3 c-1 -0.9 -0.9 -2.3 0.1 -2.3 0.5 0 1.7 0.7 2.8 1.5 1.9 1.4 1.9 1.4 -0.2 1.5 -1.1 0 -2.4 -0.3 -2.7 -0.7z"/>
  <path d="M31.5 21.6 l-4 -3.6 3.8 0 c4 0 5.1 1.2 4.5 5 -0.3 2 -0.5 1.9 -4.3 -1.4z"/>
  <path d="M16 22.6 c0 -1.7 4.2 -2.8 7.5 -2 4.6 1.1 3 3.4 -2.5 3.4 -3.6 0 -5 -0.4 -5 -1.4z"/>
  <path d="M26 15.1 c-1.3 -2.6 -1.2 -5.2 0.4 -7.4 2.1 -2.7 2.6 -2.1 2.6 3.8 0 5.6 -1.1 7 -3 3.6z"/>
  <path d="M30 6 c0 -1.3 0.7 -2 2 -2 1.3 0 2 0.7 2 2 0 1.3 -0.7 2 -2 2 -1.3 0 -2 -0.7 -2 -2z"/>
 </g>
 <g fill="#8c8c8c">
  <path d="M29.6 35.9 c-1.9 -1.9 -1.9 -1.9 1.7 -1.9 3 0 3.7 0.4 3.7 2 0 2.6 -2.9 2.5 -5.4 -0.1z"/>
  <path d="M40 35 c0 -2.7 0.3 -3 3 -3 3.5 0 3.2 2 -0.6 4.5 -2.4 1.5 -2.4 1.5 -2.4 -1.5z"/>
  <path d="M17 29 c0 -1.6 0.7 -2 3.5 -2 2.8 0 3.5 0.4 3.5 2 0 1.6 -0.7 2 -3.5 2 -2.8 0 -3.5 -0.4 -3.5 -2z"/>
  <path d="M7.5 26.6 c2.4 -3.6 9.7 -6.3 15.8 -5.8 3 0.3 1.9 3 -1.5 3.5 -8 1.4 -9.8 2 -9.8 3.3 0 0.9 -1.1 1.4 -3 1.4 -3 0 -3 -0.1 -1.5 -2.4z"/>
  <path d="M43 25.5 c0 -0.8 -0.4 -1.5 -1 -1.5 -0.5 0 -1 -1.7 -1 -3.7 l0.1 -3.8 2.9 3.5 c3.5 4 3.9 7 1 7 -1.1 0 -2 -0.7 -2 -1.5z"/>
  <path d="M26 9 c0 -1.8 4.1 -5.1 5.8 -4.8 2.2 0.4 2.9 3.8 0.8 3.8 -0.9 0 -1.6 0.5 -1.6 1 0 0.6 -1.1 1 -2.5 1 -1.4 0 -2.5 -0.4 -2.5 -1z"/>
 </g>
 <g fill="#848484">
  <path d="M34.7 38.3 c-1.8 -1.7 -0.5 -3.3 2.8 -3.3 4 0 4.9 2.4 1.3 3.4 -2.9 0.7 -3.3 0.7 -4.1 -0.1z"/>
  <path d="M10 34.5 c0 -3.2 0.2 -3.5 3 -3.5 2.3 0 3 -0.4 3 -2 0 -1.7 0.7 -2 4.5 -2 3.9 0 4.5 0.3 4.5 2.1 0 1.5 -0.6 2 -2.2 1.9 -5.4 -0.5 -6.8 0.1 -9 3.5 -2.9 4.4 -3.8 4.4 -3.8 0z"/>
  <path d="M43 31.5 c0 -2.8 0.4 -3.5 2 -3.5 2.3 0 2.6 2.6 0.6 5.3 -2 2.5 -2.6 2.1 -2.6 -1.8z"/>
  <path d="M4.4 31.4 c1.2 -3.1 5.1 -7.3 7.9 -8.3 2.5 -0.9 2.7 -0.8 2.7 1.5 0 1.9 -0.6 2.6 -3 3.1 -2.3 0.4 -3 1.1 -3 2.9 0 1.9 -0.5 2.4 -2.6 2.4 -2 0 -2.5 -0.4 -2 -1.6z"/>
  <path d="M30 27 c0 -1.6 0.3 -3 0.8 -3 0.9 0.1 6.2 4.7 6.2 5.5 0 0.3 -1.6 0.5 -3.5 0.5 -3.2 0 -3.5 -0.2 -3.5 -3z"/>
  <path d="M35 24.5 l-3.4 -3.5 3.7 0 c3.6 0 3.7 0.1 3.7 3.5 0 1.9 -0.1 3.5 -0.3 3.5 -0.2 0 -1.8 -1.6 -3.7 -3.5z"/>
  <path d="M22 23 c0 -2.2 2 -2.6 5.1 -1 3 1.6 2.3 3 -1.6 3 -2.8 0 -3.5 -0.4 -3.5 -2z"/>
  <path d="M27.6 17.8 c-2.2 -3.6 -2.8 -6.6 -1.6 -8.8 1.6 -3.1 3 -2.4 3 1.5 0 1.9 0.5 3.5 1 3.5 0.6 0 1 1.4 1 3 0 3.6 -1.4 3.9 -3.4 0.8z"/>
  <path d="M30.2 6.8 c0.2 -1.3 1 -2.3 1.8 -2.3 0.8 0 1.6 1 1.8 2.3 0.3 1.7 -0.2 2.2 -1.8 2.2 -1.6 0 -2.1 -0.5 -1.8 -2.2z"/>
 </g>
 <g fill="#7b7b7b">
  <path d="M6.6 37.8 c-2.7 -1.5 -1.8 -2.8 1.9 -2.8 2.3 0 3.5 0.5 3.5 1.4 0 1.8 -3.2 2.6 -5.4 1.4z"/>
  <path d="M33.8 38.3 c-3.5 -0.9 -1.9 -3.1 2.7 -3.7 2.9 -0.5 4.5 -1.2 4.5 -2.2 0 -0.8 1 -1.4 2.5 -1.4 1.4 0 2.5 0.4 2.5 1 0 1.3 -5.2 6 -6.7 6 -0.6 0 -1.7 0.2 -2.5 0.4 -0.7 0.2 -2.1 0.2 -3 -0.1z"/>
  <path d="M33 29.6 c0 -2.6 -1.6 -3.6 -6.1 -3.6 -2.4 0 -2.9 -0.4 -2.9 -2.5 0 -2.5 0 -2.5 3.7 -1 2.1 0.9 4.5 2.5 5.5 3.5 1.1 1.1 2.6 2 3.5 2 1.3 0 1.4 -0.2 0.2 -1.7 -0.8 -1 -2.5 -2.7 -3.9 -3.8 -7 -5.6 -8.7 -9.4 -6.3 -14.4 1.9 -3.9 5.3 -4.9 5.3 -1.5 0 1.5 -0.6 2.4 -1.5 2.4 -1.2 0 -1.4 0.9 -0.9 4.3 0.9 6.4 1.1 6.7 4.9 6.7 3.1 0 3.5 0.3 3.5 2.5 0 1.4 0.5 2.5 1 2.5 0.6 0 1 1.6 1 3.5 0 3.3 -0.2 3.5 -3.5 3.5 -3 0 -3.5 -0.3 -3.5 -2.4z"/>
  <path d="M40 19.4 c0 -3.9 0.9 -3.8 4 0.6 l2.1 3 -3 0 c-2.9 0 -3.1 -0.3 -3.1 -3.6z"/>
 </g>
 <g fill="#737373">
  <path d="M8 36 c0 -1.5 0.7 -2 2.6 -2 2 0 2.5 0.4 2 1.6 -0.3 0.9 -0.6 1.8 -0.6 2 0 0.2 -0.9 0.4 -2 0.4 -1.3 0 -2 -0.7 -2 -2z"/>
  <path d="M27.6 33.8 c-0.4 -1 -2.6 -2.3 -4.7 -2.9 -2.3 -0.7 -3.9 -1.8 -3.9 -2.7 0 -1.2 1 -1.4 4.9 -0.9 4.8 0.6 5 0.5 5.3 -2 l0.3 -2.7 3.4 3.2 c3.3 3 6.4 3.5 4 0.6 -0.9 -1.1 -0.8 -1.4 0.5 -1.4 1.2 0 1.6 0.9 1.6 3.5 0 3.3 -0.2 3.5 -3.5 3.5 -2.4 0 -3.5 -0.5 -3.5 -1.5 0 -3 -2.9 -1.5 -3.2 1.8 -0.3 2.5 -0.6 2.8 -1.2 1.5z"/>
  <path d="M13 24 c0 -1.2 3.3 -3 5.4 -3 0.9 0 1.6 0.9 1.6 2 0 1.6 -0.7 2 -3.5 2 -1.9 0 -3.5 -0.4 -3.5 -1z"/>
  <path d="M21 23 c0 -2.2 2 -2.6 5.1 -1 3 1.6 2.3 3 -1.6 3 -2.8 0 -3.5 -0.4 -3.5 -2z"/>
  <path d="M32 21.5 c-5.1 -3.8 -5.8 -5.5 -2 -5.5 2.7 0 3 0.3 3 3 0 2 0.5 3 1.5 3 0.8 0 1.5 0.5 1.5 1 0 1.4 -0.2 1.3 -4 -1.5z"/>
  <path d="M37.7 20.3 c-0.4 -0.3 -0.7 -1.9 -0.7 -3.5 0 -2.4 -0.4 -2.8 -3 -2.8 -2.5 0 -3 -0.4 -3.6 -3.5 -1.3 -6.9 1.8 -9.1 3.6 -2.5 0.7 2.7 2.3 5 5 7.1 5.1 4.1 5.8 5.9 2.1 5.9 -1.5 0 -3.1 -0.3 -3.4 -0.7z"/>
 </g>
 <g fill="#6b6b6b">
  <path d="M28 34 l-4.2 -4 3.6 0 c3.3 0 3.6 -0.2 3.6 -3.1 l0 -3 2.4 2.6 c1.4 1.5 3 2.4 3.5 2 0.6 -0.3 1.1 0.1 1.1 0.9 0 1.2 -1 1.6 -3.5 1.6 -2.4 0 -3.5 0.5 -3.5 1.5 0 0.9 0.9 1.5 2.5 1.5 1.8 0 2.5 0.5 2.5 2 0 3.2 -3.4 2.4 -8 -2z"/>
  <path d="M6 29 c3.1 -4.4 4 -4.5 4 -0.6 0 3.3 -0.2 3.6 -3.1 3.6 l-3 0 2.1 -3z"/>
  <path d="M42 22.3 l0.1 -3.8 2.4 2.8 c3.2 3.6 3.1 4.7 0 4.7 -2.2 0 -2.5 -0.4 -2.5 -3.7z"/>
  <path d="M14 23.6 c0 -1.3 2.8 -2.6 5.8 -2.6 0.6 0 1.2 0.9 1.2 2 0 1.6 -0.7 2 -3.5 2 -2.3 0 -3.5 -0.5 -3.5 -1.4z"/>
 </g>
 <g fill="#636363">
  <path d="M5.2 36.8 c-1.8 -1.8 -1.4 -5.3 0.8 -7.3 2 -1.8 2 -1.7 2 0.8 0 1.4 0.5 2.9 1 3.2 0.6 0.3 1 1.5 1 2.6 0 2.2 -2.9 2.6 -4.8 0.7z"/>
  <path d="M30.2 36.3 c-0.7 -0.2 -1.7 -1.3 -2.2 -2.4 -1 -1.7 -0.7 -1.9 2 -1.9 2.5 0 3 0.4 3 2.5 0 2.5 -0.4 2.8 -2.8 1.8z"/>
  <path d="M37.4 28.1 c0.3 -0.5 -0.5 -2 -1.9 -3.5 l-2.4 -2.6 2.9 0 c2.3 0 3 -0.5 3 -2 0 -1.5 -0.7 -2 -2.5 -2 -2.1 0 -2.5 -0.5 -2.5 -3 0 -2.3 -0.4 -3 -2 -3 -1.1 0 -2 -0.7 -2 -1.5 0 -0.9 -0.9 -1.5 -2.2 -1.5 -2.2 -0.1 -2.2 -0.1 0.5 -2.5 3.7 -3.3 4.4 -3.2 5.1 0.8 0.4 2.3 2.4 5.1 6.3 8.8 5.5 5.3 5.6 5.4 3 5.7 -2.3 0.3 -2.7 0.8 -2.7 3.8 0 2.4 -0.4 3.4 -1.6 3.4 -0.8 0 -1.3 -0.4 -1 -0.9z"/>
  <path d="M11 25 c0 -1.2 3.3 -3 5.4 -3 0.9 0 1.6 0.9 1.6 2 0 1.6 -0.7 2 -3.5 2 -1.9 0 -3.5 -0.4 -3.5 -1z"/>
  <path d="M20 23 c0 -2.1 1 -2.4 4.8 -1.4 3.6 1 2.7 3.4 -1.3 3.4 -2.8 0 -3.5 -0.4 -3.5 -2z"/>
 </g>
 <g fill="#5a5a5a">
  <path d="M7 36 c0 -1.1 -0.7 -2 -1.5 -2 -1.9 0 -1.9 -0.5 0.2 -4.1 2.3 -3.9 3.3 -3.7 3.4 0.9 0.1 2.3 0.3 2.8 0.6 1.5 0.3 -1.6 1.1 -2.3 2.9 -2.3 1.5 0 2.4 -0.6 2.4 -1.5 0 -1 1.1 -1.5 3.5 -1.5 4.4 0 4.8 2.6 0.5 3.5 -1.8 0.4 -4.1 2.1 -5.6 4.1 -3 3.8 -6.4 4.6 -6.4 1.4z"/>
  <path d="M36 36 c0 -1.6 0.7 -2 3 -2 2.5 0 3 -0.4 3 -2.5 0 -2 0.5 -2.5 2.5 -2.5 3.4 0 3.1 1.6 -0.9 5.6 -3.9 3.9 -7.6 4.5 -7.6 1.4z"/>
  <path d="M34 30 c0 -1.4 -0.7 -2 -2.4 -2 -3.9 0 -5.6 -1.1 -5.6 -3.6 0 -2.1 0.3 -2.3 2.5 -1.4 1.4 0.5 3.7 2.2 5 3.7 1.8 2.2 2.6 2.5 3.6 1.6 1.2 -1.2 0.3 -2.4 -6.9 -8.6 -3.8 -3.3 -4.1 -4.7 -0.7 -4.7 1.9 0 2.5 0.5 2.5 2.3 0 2.8 3.3 5.7 6.5 5.7 2.3 0 2.5 0.4 2.5 4.5 0 4.5 0 4.5 -3.5 4.5 -2.8 0 -3.5 -0.4 -3.5 -2z"/>
  <path d="M15 23.6 c0 -1.3 2.8 -2.6 5.8 -2.6 0.6 0 1.2 0.9 1.2 2 0 1.6 -0.7 2 -3.5 2 -2.3 0 -3.5 -0.5 -3.5 -1.4z"/>
  <path d="M33 15 c0 -1.1 -0.6 -2 -1.4 -2 -2.1 0 -2.8 -6.2 -0.8 -7.8 1.5 -1.1 1.8 -0.9 2.3 1.8 0.6 3 2.8 6.1 5.9 8.7 1.2 1 0.9 1.2 -2.2 1.3 -3.1 0 -3.8 -0.3 -3.8 -2z"/>
 </g>
 <g fill="#525252">
  <path d="M31.8 36.9 c-2.9 -1.6 -2.1 -2.9 1.7 -2.9 2.8 0 3.5 0.4 3.5 2 0 2.2 -2.4 2.6 -5.2 0.9z"/>
  <path d="M38 35.4 c0 -2.1 0.5 -2.4 3.7 -2.4 3.5 0 3.6 0.1 1.9 1.9 -1 1 -2.6 2.1 -3.7 2.4 -1.5 0.4 -1.9 0 -1.9 -1.9z"/>
  <path d="M11 32.5 c0 -2.8 -0.4 -3.5 -2 -3.5 -2.8 0 -2.5 -1.5 0.8 -4 l2.7 -2.2 0.3 3.1 c0.2 2.3 0.8 3.1 2.3 3.1 1 0 1.9 -0.7 1.9 -1.5 0 -1 1.1 -1.5 3.5 -1.5 3 0 3.5 0.3 3.5 2.4 0 1.9 -0.4 2.2 -2.4 1.9 -2.8 -0.6 -8.6 2.5 -8.6 4.4 0 0.7 -0.4 1.3 -1 1.3 -0.5 0 -1 -1.6 -1 -3.5z"/>
  <path d="M43 26.5 c0 -0.8 -0.4 -1.5 -1 -1.5 -0.5 0 -1 -1.7 -1 -3.7 l0.1 -3.8 2.9 3.5 c3.5 4 3.9 7 1 7 -1.1 0 -2 -0.7 -2 -1.5z"/>
  <path d="M16 23.6 c0 -1.7 4.2 -2.8 7.5 -2 4.6 1.1 3 3.4 -2.5 3.4 -3.6 0 -5 -0.4 -5 -1.4z"/>
  <path d="M31.3 20.4 c-5.6 -5.3 -7 -9.4 -3.3 -9.4 1.6 0 2 0.7 2 3.5 0 3.2 0.2 3.5 3 3.5 3.3 0 4.4 1.5 3.8 5.2 -0.3 2.1 -0.7 2 -5.5 -2.8z"/>
 </g>
 <g fill="#4a4a4a">
  <path d="M5.8 36.6 c-2.4 -1.8 -2.3 -4.6 0.1 -4.6 1.1 0 2.2 0.6 2.4 1.3 0.4 1 0.6 1 0.6 0 0.1 -0.7 1.2 -1.3 2.6 -1.3 1.9 0 2.3 0.4 1.8 1.8 -0.7 2 -3.2 4.2 -4.7 4.2 -0.6 0 -1.9 -0.7 -2.8 -1.4z"/>
  <path d="M32.8 37.3 c-1 -0.2 -1.8 -1.1 -1.8 -1.9 0 -1 1.3 -1.4 5 -1.4 4.3 0 5 -0.3 5 -2 0 -1.6 0.7 -2 3 -2 3 0 3 0 1.4 2.6 -2.8 4.2 -7.6 6 -12.6 4.7z"/>
  <path d="M33 29.8 c0 -2.5 0.3 -2.9 1.2 -2 1.7 1.7 3.8 1.5 3.8 -0.3 0 -0.8 0.5 -1.5 1 -1.5 0.6 0 1 1.6 1 3.5 0 3.3 -0.2 3.5 -3.5 3.5 -3.3 0 -3.5 -0.2 -3.5 -3.2z"/>
  <path d="M23.4 30.5 c-1.9 -0.8 -3.7 -0.9 -4.5 -0.4 -2.3 1.4 -2.9 1.1 -2.9 -1.6 0 -2.3 0.4 -2.5 4.3 -2.5 5.1 0 7 1.1 6.5 3.8 -0.3 1.9 -0.5 2 -3.4 0.7z"/>
  <path d="M9.4 25.5 c3.7 -3.1 4.6 -3.1 4.6 0 0 2.2 -0.4 2.5 -3.7 2.5 l-3.8 0 2.9 -2.5z"/>
  <path d="M42 23.5 c0 -4.3 1 -4.4 3.3 -0.6 2.2 3.8 2.2 4.1 -0.8 4.1 -2.2 0 -2.5 -0.4 -2.5 -3.5z"/>
  <path d="M32 12.5 c0 -1.9 -0.4 -3.5 -1 -3.5 -0.5 0 -1 0.7 -1 1.5 0 0.8 -0.9 1.5 -2 1.5 -2.8 0 -2.6 -3.5 0.2 -5.4 3.1 -2.2 4.8 -2 4.8 0.7 0 1.2 1.3 3.7 2.9 5.5 l3 3.2 -3.5 0 c-3.2 0 -3.4 -0.2 -3.4 -3.5z"/>
 </g>
 <g fill="#424242">
  <path d="M7.3 37.3 c-2.8 -1.1 -1.3 -3.3 2.2 -3.3 4 0 4.1 0.2 1.9 2.4 -1.6 1.7 -2.1 1.8 -4.1 0.9z"/>
  <path d="M34.7 37.3 c-1.8 -1.7 -0.5 -3.3 2.8 -3.3 4 0 4.9 2.4 1.3 3.4 -2.9 0.7 -3.3 0.7 -4.1 -0.1z"/>
  <path d="M28.5 34.2 c-4.3 -4.6 -7.8 -5.8 -10.7 -3.8 -3.1 2.2 -3.8 2 -3.8 -0.8 0 -1.9 0.6 -2.4 3.8 -3 7 -1.1 8.2 -0.8 8.2 1.9 0 2.1 0.5 2.5 3 2.5 2.6 0 3 -0.4 3 -2.7 l0 -2.6 2.5 2.3 2.5 2.3 0.9 -2.4 c0.9 -2.2 1 -2.1 1 1.4 0.1 3.6 0 3.7 -3.3 3.7 -2.8 0 -3.5 0.4 -3.8 2.2 -0.3 2.1 -0.4 2 -3.3 -1z"/>
  <path d="M42.2 31.3 c0.2 -3.1 0.7 -3.9 2.6 -4.1 2.8 -0.4 2.9 2.3 0.3 5.6 -2.7 3.1 -3.3 2.8 -2.9 -1.5z"/>
  <path d="M36.3 19.5 c-0.7 -0.8 -1.3 -2.3 -1.3 -3.5 0 -1.5 -0.6 -2 -2.5 -2 -2.2 0 -2.5 -0.4 -2.5 -3.5 0 -2.4 0.5 -3.5 1.5 -3.5 0.8 0 1.5 0.7 1.5 1.5 0 0.9 2.6 4 5.7 7 l5.8 5.5 -3.5 0 c-1.9 -0.1 -4.1 -0.7 -4.7 -1.5z"/>
 </g>
 <g fill="#3a3a3a">
  <path d="M5.8 36 l-2.2 -1.8 1.9 -3.7 c1.1 -2 2.8 -4.1 3.8 -4.6 1.4 -0.8 1.7 -0.5 1.7 1.6 0 1.5 -0.5 3.5 -1 4.6 -0.8 1.5 -0.7 1.9 0.5 1.9 1 0 1.5 -1 1.5 -3 0 -2.8 0.3 -3 3.5 -3 4.3 0 4.4 1 0.6 3.3 -1.7 1 -3.2 2.6 -3.6 3.6 -0.8 2.7 -4.1 3.2 -6.7 1.1z"/>
  <path d="M33.4 37.1 c-2.2 -0.6 -10.4 -7.3 -10.4 -8.4 0 -0.4 1.6 -0.7 3.5 -0.7 1.9 0 3.5 -0.4 3.5 -1 0 -0.5 -1.6 -1 -3.5 -1 -2.8 0 -3.5 -0.4 -3.5 -2 0 -3.7 7 -1.4 10.9 3.6 1.1 1.4 2.5 2.3 3.1 1.9 1.6 -1 1.2 -2.7 -1.2 -5.2 l-2.1 -2.3 2.1 0 c1.8 0 2.2 -0.6 2.2 -3 0 -3.6 0.4 -3.7 3.4 -0.7 5.3 5.2 7.1 10.7 3.6 10.7 -1.6 0 -2 -0.7 -2 -3.5 0 -1.9 -0.4 -3.5 -1 -3.5 -0.5 0 -1 2.5 -1 5.5 l0 5.5 -3.2 0.1 c-3.1 0.2 -3.1 0.2 -0.5 0.6 2.4 0.4 4 3.3 1.8 3.3 -0.5 0 -1.5 0.2 -2.3 0.4 -0.7 0.2 -2.2 0.1 -3.4 -0.3z m0.6 -5.1 c0 -0.5 -0.9 -1 -2 -1 -1.1 0 -2 0.5 -2 1 0 0.6 0.9 1 2 1 1.1 0 2 -0.4 2 -1z"/>
  <path d="M26.6 14.8 c-1 -3.8 -0.7 -4.8 1.4 -4.8 1.6 0 2 0.7 2 3.5 0 4 -2.4 4.9 -3.4 1.3z"/>
  <path d="M31 12 c0 -2 -0.5 -3 -1.5 -3 -0.8 0 -1.5 -0.7 -1.5 -1.5 0 -0.8 0.4 -1.5 0.9 -1.5 0.5 0 1.6 -0.3 2.5 -0.6 1.3 -0.5 1.6 0.1 1.6 2.5 0 1.7 0.3 3.1 0.8 3.1 0.4 0 1.3 0.9 2 2 1.1 1.8 1 2 -1.8 2 -2.7 0 -3 -0.3 -3 -3z"/>
 </g>
 <g fill="#313131">
  <path d="M5.2 35.8 c-1.4 -1.4 -1.6 -3.8 -0.4 -3.8 0.5 0 1.4 -1.2 2.1 -2.7 1.3 -2.7 4 -5.2 7.3 -6.5 1.4 -0.6 1.8 -0.3 1.8 1.2 0 1.2 0.7 2 1.8 2 0.9 0 3.4 0.3 5.5 0.6 3.3 0.6 3.7 0.4 3.7 -1.5 0 -3 1.7 -2.6 5.6 1.4 1.8 1.9 3.8 3.5 4.4 3.5 0.5 0 1 0.5 1 1 0 1.6 -6 1.1 -7.8 -0.7 -1.5 -1.5 -1.7 -1.4 -2.3 0.8 -0.4 1.3 -0.7 1.9 -0.8 1.4 -0.1 -0.6 -1.5 -1.6 -3.2 -2.4 -2.7 -1.2 -3.6 -1.2 -6.5 0.3 -1.9 0.9 -4 2.7 -4.6 4.1 -1.2 2.7 -5.4 3.5 -7.6 1.3z m7.7 -6 c-0.1 -1.8 -0.3 -2.5 -0.6 -1.5 -0.2 0.9 -1.3 1.7 -2.4 1.7 -1.9 0 -2.5 1.1 -1.2 2.3 0.3 0.4 1.5 0.7 2.5 0.7 1.4 0 1.8 -0.7 1.7 -3.2z"/>
  <path d="M37 35 c0 -1.1 0.5 -2 1.1 -2 2.3 0 3.9 -3 3.9 -7.4 0 -5.5 1.4 -5.9 3.7 -1.1 1.6 3.4 1.6 3.7 -0.1 6.8 -2.3 3.9 -4.4 5.7 -6.8 5.7 -1.1 0 -1.8 -0.7 -1.8 -2z"/>
  <path d="M37.9 26.8 c0 -0.7 -2.4 -3.2 -5.3 -5.5 -4.1 -3.2 -5.5 -5 -6 -7.7 -0.8 -4.4 0.6 -7.2 3.9 -7.8 2 -0.4 2.5 -0.1 2.5 1.4 0 1 -0.7 2.1 -1.5 2.4 -2.2 0.9 -1.8 3 1.2 6 2.7 2.7 2.7 2.7 3.3 0.5 0.5 -2.1 0.6 -2.1 3.8 0.9 l3.3 3 -3.3 0.1 c-1.8 0.1 -2.5 0.3 -1.5 0.6 1.2 0.3 1.7 1.5 1.7 3.9 0 3.1 -1.9 5.1 -2.1 2.2z"/>
 </g>
 <g fill="#292929">
  <path d="M5.2 35.5 c-1 -1.2 -0.8 -2.2 1.2 -5.4 3.6 -5.7 8.6 -8.9 8.6 -5.6 0 1 1.1 1.5 3.5 1.5 2.9 0 3.5 -0.4 3.5 -2.1 0 -1.9 0.4 -2.1 3.3 -1.5 1.7 0.4 4.3 1.8 5.7 3.1 l2.5 2.5 -2.3 0 c-1.2 0 -2.2 0.5 -2.2 1 0 0.6 0.7 1 1.5 1 0.9 0 1.8 0.7 2.1 1.5 0.4 0.8 1.2 1.5 2 1.5 0.8 0 1.4 0.9 1.4 2 0 3.2 -3.6 2.4 -7.7 -1.5 -6.1 -5.9 -10.4 -5.9 -14.9 0.1 -2.8 3.6 -6 4.4 -8.2 1.9z"/>
  <path d="M41.7 29.3 c-1.6 -10.4 -3.3 -13.6 -3.9 -7.1 l-0.3 3.1 -2.8 -2.4 c-8.3 -7 -9.4 -8.9 -5.2 -8.9 1.8 0 2.5 -0.5 2.5 -2 0 -1.5 -0.7 -2 -2.5 -2 -2.8 0 -3.4 -2.4 -0.9 -3.4 3 -1.2 4.4 -0.6 4.4 1.8 0 1.6 1.7 4 5.3 7.2 7 6.4 9.2 10.7 7.5 14.6 -1.8 3.9 -3.5 3.5 -4.1 -0.9z"/>
 </g>
 <g fill="#212121">
  <path d="M5.5 35.4 c-1.3 -1 -1.6 -1.7 -0.9 -2.2 0.6 -0.4 1.4 -1.6 1.8 -2.7 0.3 -1.2 2.5 -3.5 4.8 -5.3 3.2 -2.5 5.1 -3.2 8.6 -3.2 5.1 0 10 2 13.3 5.6 2.8 3 4.9 3.1 4.9 0.2 0 -1.5 -2 -4.1 -5.7 -7.4 -4.9 -4.5 -5.7 -5.7 -5.7 -8.8 0 -4.1 0.1 -4.2 3.7 -5.1 2.4 -0.6 2.7 -0.4 2.7 1.8 0 2.4 3.5 6.9 7.6 9.7 2.6 1.8 6.9 10.3 5.4 10.8 -0.5 0.2 -1 1.1 -1 2 -0.1 3.8 -2.9 5.7 -8.3 5.7 -4.7 0 -5.6 -0.4 -8.9 -3.7 -2.8 -2.9 -4.5 -3.8 -7 -3.8 -3.6 0 -6.9 2.2 -8.7 5.8 -1.3 2.5 -3.7 2.8 -6.6 0.6z"/>
 </g>
 <g fill="#191919">
 </g>
 <g fill="#101010">
 </g>
 <g fill="#080808">
 </g>
 <g fill="#000000">
 </g>
</svg>