<svg width="17" height="17" viewBox="0 0 17 17" fill="none" xmlns="http://www.w3.org/2000/svg">
<path d="M7.79169 1.41669H6.37502C2.83335 1.41669 1.41669 2.83335 1.41669 6.37502V10.625C1.41669 14.1667 2.83335 15.5834 6.37502 15.5834H10.625C14.1667 15.5834 15.5834 14.1667 15.5834 10.625V9.20835" stroke="#292D32" stroke-opacity="0.82" stroke-width="1.5" stroke-linecap="round" stroke-linejoin="round"/>
<path d="M11.3616 2.13916L5.77998 7.72083C5.56748 7.93333 5.35498 8.35125 5.31248 8.65583L5.00789 10.7879C4.89456 11.56 5.43998 12.0983 6.21206 11.9921L8.34414 11.6875C8.64164 11.645 9.05956 11.4325 9.27914 11.22L14.8608 5.63833C15.8241 4.675 16.2775 3.55583 14.8608 2.13916C13.4441 0.722496 12.325 1.17583 11.3616 2.13916Z" stroke="#292D32" stroke-opacity="0.82" stroke-width="1.5" stroke-miterlimit="10" stroke-linecap="round" stroke-linejoin="round"/>
<path d="M10.5613 2.93958C11.0359 4.63249 12.3604 5.95708 14.0604 6.43874" stroke="#292D32" stroke-opacity="0.82" stroke-width="1.5" stroke-miterlimit="10" stroke-linecap="round" stroke-linejoin="round"/>
</svg>
